<svg xmlns="http://www.w3.org/2000/svg" width="1200" height="630" viewBox="0 0 1200 630"><path fill="#fefbfb" d="M0 0h1200v630H0z"/><defs><clipPath id="a"><path d="M109 39h1048a4 4 0 0 1 4 4v496a4 4 0 0 1-4 4H109a4 4 0 0 1-4-4V43a4 4 0 0 1 4-4"/></clipPath></defs><g opacity=".9"><path fill="#ecebeb" d="M109 39h1048a4 4 0 0 1 4 4v496a4 4 0 0 1-4 4H109a4 4 0 0 1-4-4V43a4 4 0 0 1 4-4"/><path fill="none" stroke="#000" stroke-width="8" d="M106.172 40.172A4 4 0 0 1 109 39h1048a4 4 0 0 1 4 4v496a4 4 0 0 1-4 4H109a4 4 0 0 1-4-4V43a4 4 0 0 1 1.172-2.828" clip-path="url(#a)"/></g><defs><clipPath id="b"><path d="M76 63h1048a4 4 0 0 1 4 4v496a4 4 0 0 1-4 4H76a4 4 0 0 1-4-4V67a4 4 0 0 1 4-4"/></clipPath></defs><path fill="#fefbfb" d="M76 63h1048a4 4 0 0 1 4 4v496a4 4 0 0 1-4 4H76a4 4 0 0 1-4-4V67a4 4 0 0 1 4-4"/><path fill="none" stroke="#000" stroke-width="8" d="M73.172 64.172A4 4 0 0 1 76 63h1048a4 4 0 0 1 4 4v496a4 4 0 0 1-4 4H76a4 4 0 0 1-4-4V67a4 4 0 0 1 1.172-2.828" clip-path="url(#b)"/><clipPath id="c"><path d="M128 103h944v281H128z"/></clipPath><mask id="d"><path fill="#fff" d="M128 103h944v281H128z"/></mask><path d="M155.9 183v-21.1h-12.6V183h-10.9v-50.3h10.9v20.4h12.6v-20.4h10.9V183h-10.9Zm36.9.8q-4.3 0-7.8-1.3-3.4-1.3-5.8-3.9-2.5-2.5-3.8-6.1-1.2-3.6-1.2-8.1 0-4.6 1.2-8.2 1.3-3.6 3.8-6.1 2.4-2.5 5.8-3.8 3.5-1.4 7.8-1.4t7.8 1.4q3.4 1.3 5.8 3.8 2.5 2.5 3.8 6.1 1.2 3.6 1.2 8.2 0 4.5-1.2 8.1-1.3 3.6-3.8 6.1-2.4 2.6-5.8 3.9-3.5 1.3-7.8 1.3Zm0-7.9q3.6 0 5.6-2.2 2-2.3 2-6.4v-5.9q0-4.1-2-6.3t-5.6-2.2q-3.6 0-5.6 2.2-2 2.2-2 6.3v5.9q0 4.1 2 6.4 2 2.2 5.6 2.2Zm26.5 7.1-4.4-37.2h8.9l2.6 30.1h.7l4.4-30.1h9.4l4.3 30.1h.7l2.8-30.1h8.4l-4.4 37.2H240l-3.6-25.7h-.8L232 183h-12.7Zm86.1 0v-50.3h16.2q10.2 0 15.1 6.5t4.9 18.6q0 12.2-4.9 18.7t-15.1 6.5h-16.2Zm10.7-8.5h4.8q4.8 0 7-3.1 2.3-3.1 2.3-9v-9.2q0-5.8-2.3-8.9-2.2-3.1-7-3.1h-4.8v33.3Zm49.5 9.3q-4.3 0-7.8-1.3-3.4-1.3-5.8-3.9-2.5-2.5-3.8-6.1-1.2-3.6-1.2-8.1 0-4.6 1.2-8.2 1.3-3.6 3.8-6.1 2.4-2.5 5.8-3.8 3.5-1.4 7.8-1.4t7.8 1.4q3.4 1.3 5.8 3.8 2.5 2.5 3.8 6.1 1.2 3.6 1.2 8.2 0 4.5-1.2 8.1-1.3 3.6-3.8 6.1-2.4 2.6-5.8 3.9-3.5 1.3-7.8 1.3Zm0-7.9q3.6 0 5.6-2.2 2-2.3 2-6.4v-5.9q0-4.1-2-6.3t-5.6-2.2q-3.6 0-5.6 2.2-2 2.2-2 6.3v5.9q0 4.1 2 6.4 2 2.2 5.6 2.2Zm102.6 7.1h-32.4v-8h10.8v-34.3h-10.8v-8h32.4v8h-10.8V175h10.8v8Zm53.2 0v-50.3h16.2q10.2 0 15.1 6.5t4.9 18.6q0 12.2-4.9 18.7t-15.1 6.5h-16.2Zm10.7-8.5h4.8q4.8 0 7-3.1 2.3-3.1 2.3-9v-9.2q0-5.8-2.3-8.9-2.2-3.1-7-3.1h-4.8v33.3Zm50.5 9.3q-9.4 0-14.2-5.2-4.8-5.2-4.8-14.1 0-4.5 1.3-8.2 1.2-3.6 3.6-6.1 2.3-2.6 5.6-3.9 3.4-1.4 7.6-1.4 4.1 0 7.5 1.4 3.3 1.3 5.6 3.7 2.3 2.5 3.5 6 1.3 3.5 1.3 7.8v3.2h-25.4v.6q0 3.6 2.2 5.8 2.2 2.2 6.6 2.2 3.3 0 5.7-1.3 2.3-1.2 4.1-3.3l5.7 6.3q-2.1 2.6-6 4.6-3.9 1.9-9.9 1.9Zm-.9-31.2q-3.4 0-5.5 2.1-2 2.1-2 5.7v.6h15v-.6q0-3.7-2-5.7-2-2.1-5.5-2.1Zm49.4 30.4h-12.6l-13.4-37.2h11.3l4.8 15.9 3.5 12.4h.6l3.5-12.4 4.9-15.9h10.8L631.1 183Zm37.9.8q-9.4 0-14.2-5.2-4.8-5.2-4.8-14.1 0-4.5 1.3-8.2 1.2-3.6 3.6-6.1 2.3-2.6 5.6-3.9 3.4-1.4 7.6-1.4 4.1 0 7.5 1.4 3.3 1.3 5.6 3.7 2.3 2.5 3.5 6 1.3 3.5 1.3 7.8v3.2h-25.4v.6q0 3.6 2.2 5.8 2.2 2.2 6.6 2.2 3.3 0 5.7-1.3 2.3-1.2 4.1-3.3l5.7 6.3q-2.1 2.6-6 4.6-3.9 1.9-9.9 1.9Zm-.9-31.2q-3.4 0-5.5 2.1-2 2.1-2 5.7v.6h15v-.6q0-3.7-2-5.7-2-2.1-5.5-2.1Zm26.4 30.4v-8.3h11.4V138h-11.4v-8.3h22v45h11.4v8.3h-33.4Zm59.9.8q-4.3 0-7.8-1.3-3.4-1.3-5.8-3.9-2.5-2.5-3.8-6.1-1.2-3.6-1.2-8.1 0-4.6 1.2-8.2 1.3-3.6 3.8-6.1 2.4-2.5 5.8-3.8 3.5-1.4 7.8-1.4t7.8 1.4q3.4 1.3 5.8 3.8 2.5 2.5 3.8 6.1 1.2 3.6 1.2 8.2 0 4.5-1.2 8.1-1.3 3.6-3.8 6.1-2.4 2.6-5.8 3.9-3.5 1.3-7.8 1.3Zm0-7.9q3.6 0 5.6-2.2 2-2.3 2-6.4v-5.9q0-4.1-2-6.3t-5.6-2.2q-3.6 0-5.6 2.2-2 2.2-2 6.3v5.9q0 4.1 2 6.4 2 2.2 5.6 2.2Zm25.8 21.5v-51.6h10.7v6.8h.5q1.4-3.3 4-5.5t7-2.2q3.1 0 5.7 1.2 2.5 1.1 4.4 3.5 1.8 2.4 2.8 6.1 1.1 3.6 1.1 8.7 0 5-1.1 8.7-1 3.7-2.8 6-1.9 2.4-4.4 3.6-2.6 1.1-5.7 1.1-4.4 0-7-2.1-2.6-2.1-4-5.5h-.5v21.2h-10.7Zm17.6-21.9q3.6 0 5.6-2.2 1.9-2.2 1.9-6v-5.8q0-3.9-1.9-6.1-2-2.2-5.6-2.2-2.8 0-4.8 1.4-2.1 1.4-2.1 4.3v10.9q0 3 2.1 4.4 2 1.3 4.8 1.3Zm95.6 7.5v-22.4l.6-14.1h-.6l-9.4 25.9-9.4-25.9h-.6l.6 14.1V183h-9.4v-50.3H878l6.1 16.9h.6l6.2-16.9h11.9V183h-9.4Zm37.6-21.6 5.6-15.6h10.8l-17.5 43.1q-1.6 4.1-4.4 6.3-2.7 2.2-7.4 2.2h-7.4v-8.3h8.9l2.3-6.4-14.9-36.9h11.4l5.4 15.6 3.4 10.8h.6l3.2-10.8Zm-761.5 73.8H155v41.4h-10.8v-41.4h-14.5v-8.9h39.8v8.9Zm24.3 42.2q-9.4 0-14.2-5.2-4.8-5.2-4.8-14.1 0-4.5 1.3-8.2 1.2-3.6 3.6-6.1 2.3-2.6 5.6-3.9 3.4-1.4 7.6-1.4 4.1 0 7.5 1.4 3.3 1.3 5.6 3.7 2.3 2.5 3.5 6 1.3 3.5 1.3 7.8v3.2h-25.4v.6q0 3.6 2.2 5.8 2.2 2.2 6.6 2.2 3.3 0 5.7-1.3 2.3-1.2 4.1-3.3l5.7 6.3q-2.1 2.6-6 4.6-3.9 1.9-9.9 1.9Zm-.9-31.2q-3.4 0-5.5 2.1-2 2.1-2 5.7v.6h15v-.6q0-3.7-2-5.7-2-2.1-5.5-2.1Zm26.8 30.4v-8.3h8.6v-20.6h-8.6v-8.3H239v10.5h.5q.5-2 1.4-3.9.9-1.9 2.3-3.4t3.4-2.3q2-.9 4.7-.9h3.6v9.8h-8q-3.9 0-5.9 2.3-2 2.4-2 5.8v11h12.2v8.3h-31.5Zm48.6 0h-8.5v-37.2h8.5v5.5h.5q.9-2.6 2.5-4.5t4.6-1.9q5.4 0 6.6 6.4h.4q.5-1.3 1.1-2.5.7-1.1 1.6-2 .9-.9 2.2-1.4 1.3-.5 3.1-.5 7.7 0 7.7 11.5v26.6h-8.5v-25.5q0-2.6-.9-3.7-.9-1-2.4-1-1.3 0-2.3.9-1 .9-1 2.8v26.5h-8.6v-25.5q0-2.6-.8-3.7-.9-1-2.3-1-1.5 0-2.5.9t-1 2.8v26.5Zm56.4-42q-3.6 0-5-1.4-1.4-1.5-1.4-3.6v-2.1q0-2.1 1.4-3.6 1.4-1.4 5-1.4t5 1.4q1.4 1.5 1.4 3.6v2.1q0 2.1-1.4 3.6-1.4 1.4-5 1.4Zm-17.1 42v-8.3h11.8v-20.6h-11.8v-8.3H330v28.9h11v8.3h-33.4Zm51.7 0h-10.6v-37.2h10.6v6.8h.5q.6-1.6 1.6-3 .9-1.4 2.2-2.4 1.4-1 3.1-1.7 1.8-.6 4-.6 2.7 0 4.9.9t3.8 2.7q1.6 1.8 2.5 4.4.9 2.6.9 6v24.1h-10.6v-22.7q0-7.2-6.3-7.2-1.2 0-2.4.4-1.2.3-2.1 1-1 .7-1.5 1.7-.6 1-.6 2.3v24.5Zm69.1 0h-6.1q-3.3 0-5.4-1.7-2-1.7-2.3-4.9h-.4q-1 3.7-4 5.5-3 1.9-7.3 1.9-5.4 0-8.7-2.9-3.3-2.9-3.3-8.2 0-5.8 4.3-8.6 4.2-2.8 12.4-2.8h6V253q0-3.3-1.5-5-1.6-1.7-5.2-1.7-3.4 0-5.5 1.3t-3.6 3.4l-5.8-5.2q1.8-3.2 5.8-5.2 4-2.1 10.3-2.1 7.6 0 11.9 3.5 4.3 3.5 4.3 10.6v16.2h4.1v7.8Zm-21.5-6.2q2.8 0 4.8-1.3 1.9-1.4 1.9-4v-4.5h-5.7q-6.5 0-6.5 4.4v1.5q0 1.9 1.5 2.9t4 1Zm28.4 6.2v-8.3h11.4v-36.7h-11.4v-8.3h22v45h11.4v8.3h-33.4Zm97.8 0h-10.8v-50.3h19.4q3.7 0 6.6 1.1 2.8 1.1 4.8 3.2t3 5.1q1 2.9 1 6.6 0 3.7-1 6.6-1 3-3 5-2 2.1-4.8 3.2-2.9 1.2-6.6 1.2h-8.6v18.3Zm0-41.6v14.6h5.9q3.8 0 5.3-1.5 1.4-1.4 1.4-4.7v-2.2q0-3.3-1.4-4.8-1.5-1.4-5.3-1.4h-5.9Zm48.5 42.4q-4.3 0-7.8-1.3-3.4-1.3-5.8-3.9-2.5-2.5-3.8-6.1-1.2-3.6-1.2-8.1 0-4.6 1.2-8.2 1.3-3.6 3.8-6.1 2.4-2.5 5.8-3.8 3.5-1.4 7.8-1.4t7.8 1.4q3.4 1.3 5.8 3.8 2.5 2.5 3.8 6.1 1.2 3.6 1.2 8.2 0 4.5-1.2 8.1-1.3 3.6-3.8 6.1-2.4 2.6-5.8 3.9-3.5 1.3-7.8 1.3Zm0-7.9q3.6 0 5.6-2.2 2-2.3 2-6.4V255q0-4.1-2-6.3t-5.6-2.2q-3.6 0-5.6 2.2-2 2.2-2 6.3v5.9q0 4.1 2 6.4 2 2.2 5.6 2.2Zm26.9 7.1v-8.3h8.6v-20.6h-8.6v-8.3h19.3v10.5h.5q.5-2 1.4-3.9.9-1.9 2.3-3.4t3.4-2.3q2-.9 4.7-.9h3.6v9.8h-8q-3.9 0-5.9 2.3-2 2.4-2 5.8v11H640v8.3h-31.5Zm76.1 0h-13.7q-5.8 0-8.6-3.1-2.8-3-2.8-7.7v-18.1h-10.1v-8.3h6.6q2.4 0 3.4-.9 1-1 1-3.5v-8.7h9.8v13.1h14.4v8.3h-14.4v20.6h14.4v8.3Zm10.1 0v-8.3h11v-20.6H694v-8.3h11.7V234q0-4.8 2.7-7.7 2.8-3 8.6-3h12.6v8.3h-13.3v7.8h13.3v8.3h-13.3v20.6H728v8.3h-33.3Zm59.7.8q-4.3 0-7.8-1.3-3.4-1.3-5.8-3.9-2.5-2.5-3.8-6.1-1.2-3.6-1.2-8.1 0-4.6 1.2-8.2 1.3-3.6 3.8-6.1 2.4-2.5 5.8-3.8 3.5-1.4 7.8-1.4t7.8 1.4q3.4 1.3 5.8 3.8 2.5 2.5 3.8 6.1 1.2 3.6 1.2 8.2 0 4.5-1.2 8.1-1.3 3.6-3.8 6.1-2.4 2.6-5.8 3.9-3.5 1.3-7.8 1.3Zm0-7.9q3.6 0 5.6-2.2 2-2.3 2-6.4V255q0-4.1-2-6.3t-5.6-2.2q-3.6 0-5.6 2.2-2 2.2-2 6.3v5.9q0 4.1 2 6.4 2 2.2 5.6 2.2Zm26.5 7.1v-8.3h11.4v-36.7h-11.4v-8.3h22v45h11.4v8.3h-33.4Zm62.2-42q-3.6 0-5-1.4-1.4-1.5-1.4-3.6v-2.1q0-2.1 1.4-3.6 1.4-1.4 5-1.4t5 1.4q1.4 1.5 1.4 3.6v2.1q0 2.1-1.4 3.6-1.4 1.4-5 1.4Zm-17.1 42v-8.3h11.8v-20.6H826v-8.3h22.4v28.9h11v8.3H826Zm58 .8q-4.3 0-7.8-1.3-3.4-1.3-5.8-3.9-2.5-2.5-3.8-6.1-1.2-3.6-1.2-8.1 0-4.6 1.2-8.2 1.3-3.6 3.8-6.1 2.4-2.5 5.8-3.8 3.5-1.4 7.8-1.4t7.8 1.4q3.4 1.3 5.8 3.8 2.5 2.5 3.8 6.1 1.2 3.6 1.2 8.2 0 4.5-1.2 8.1-1.3 3.6-3.8 6.1-2.4 2.6-5.8 3.9-3.5 1.3-7.8 1.3Zm0-7.9q3.6 0 5.6-2.2 2-2.3 2-6.4V255q0-4.1-2-6.3t-5.6-2.2q-3.6 0-5.6 2.2-2 2.2-2 6.3v5.9q0 4.1 2 6.4 2 2.2 5.6 2.2ZM145.6 370.2h-13.7l-3.1-50.3h9.3l1.4 30.1.5 9.5h.6l4.3-28.7h9.7l4.4 28.7h.6l.4-9.2 1.5-30.4h8.9l-3.1 50.3h-13.7l-3.6-27.8h-.8l-3.6 27.8Zm48.2.8q-9.4 0-14.2-5.2-4.8-5.2-4.8-14.1 0-4.5 1.3-8.2 1.2-3.6 3.6-6.1 2.3-2.6 5.6-3.9 3.4-1.4 7.6-1.4 4.1 0 7.5 1.4 3.3 1.3 5.6 3.7 2.3 2.5 3.5 6 1.3 3.5 1.3 7.8v3.2h-25.4v.6q0 3.6 2.2 5.8 2.2 2.2 6.6 2.2 3.3 0 5.7-1.3 2.3-1.2 4.1-3.3l5.7 6.3q-2.1 2.6-6 4.6-3.9 1.9-9.9 1.9Zm-.9-31.2q-3.4 0-5.5 2.1-2 2.1-2 5.7v.6h15v-.6q0-3.7-2-5.7-2-2.1-5.5-2.1Zm25.7 30.4v-53.3h10.7v22.9h.5q1.4-3.3 4-5.5t7-2.2q3.1 0 5.7 1.2 2.5 1.1 4.4 3.5 1.8 2.4 2.8 6.1 1.1 3.6 1.1 8.7 0 5-1.1 8.7-1 3.7-2.8 6-1.9 2.4-4.4 3.6-2.6 1.1-5.7 1.1-4.4 0-7-2.1-2.6-2.1-4-5.5h-.5v6.8h-10.7Zm17.6-7.5q3.6 0 5.6-2.2 1.9-2.2 1.9-6v-5.8q0-3.9-1.9-6.1-2-2.2-5.6-2.2-2.8 0-4.8 1.4-2.1 1.4-2.1 4.3V357q0 3 2.1 4.4 2 1.3 4.8 1.3Zm42.6 8.3q-6.2 0-10.8-1.9-4.6-1.8-6.9-5.1l6-5.5q2.2 2.4 5.1 3.7 2.9 1.3 6.6 1.3 3.2 0 5-.9 1.8-1 1.8-3 0-1.6-1.2-2.2-1.2-.6-3.4-1l-6-.9q-2.5-.4-4.7-1.2-2.1-.7-3.7-2t-2.5-3.2q-1-1.8-1-4.5 0-5.8 4.5-9.2 4.5-3.3 12.5-3.3 5.5 0 9.4 1.5 3.8 1.5 6.1 4.2l-5.3 6.1q-1.7-1.8-4.3-3.1-2.6-1.2-6.2-1.2-6.2 0-6.2 3.8 0 1.6 1.2 2.2 1.2.6 3.4 1l5.9.9q2.5.4 4.7 1.2 2.1.7 3.8 2 1.6 1.3 2.5 3.2.9 1.9.9 4.5 0 5.8-4.5 9.2-4.5 3.4-12.7 3.4Zm45.9-42.8q-3.6 0-5-1.4-1.4-1.5-1.4-3.6v-2.1q0-2.1 1.4-3.6 1.4-1.4 5-1.4t5 1.4q1.4 1.5 1.4 3.6v2.1q0 2.1-1.4 3.6-1.4 1.4-5 1.4Zm-17.1 42v-8.3h11.8v-20.6h-11.8V333H330v28.9h11v8.3h-33.4Zm74.6 0h-13.7q-5.8 0-8.6-3.1-2.8-3-2.8-7.7v-18.1H347V333h6.6q2.4 0 3.4-.9 1-1 1-3.5v-8.7h9.8V333h14.4v8.3h-14.4v20.6h14.4v8.3Zm27.6.8q-9.4 0-14.2-5.2-4.8-5.2-4.8-14.1 0-4.5 1.3-8.2 1.2-3.6 3.6-6.1 2.3-2.6 5.6-3.9 3.4-1.4 7.6-1.4 4.1 0 7.5 1.4 3.3 1.3 5.6 3.7 2.3 2.5 3.5 6 1.3 3.5 1.3 7.8v3.2h-25.4v.6q0 3.6 2.2 5.8 2.2 2.2 6.6 2.2 3.3 0 5.7-1.3 2.3-1.2 4.1-3.3l5.7 6.3q-2.1 2.6-6 4.6-3.9 1.9-9.9 1.9Zm-.9-31.2q-3.4 0-5.5 2.1-2 2.1-2 5.7v.6h15v-.6q0-3.7-2-5.7-2-2.1-5.5-2.1Zm69.6 30.4-4.4-37.2h8.9l2.6 30.1h.7l4.4-30.1h9.4l4.3 30.1h.7l2.8-30.1h8.4l-4.4 37.2h-12.7l-3.6-25.7h-.8l-3.6 25.7h-12.7Zm62.2-42q-3.6 0-5-1.4-1.4-1.5-1.4-3.6v-2.1q0-2.1 1.4-3.6 1.4-1.4 5-1.4t5 1.4q1.4 1.5 1.4 3.6v2.1q0 2.1-1.4 3.6-1.4 1.4-5 1.4Zm-17.1 42v-8.3h11.8v-20.6h-11.8V333H546v28.9h11v8.3h-33.4Zm74.6 0h-13.7q-5.8 0-8.6-3.1-2.8-3-2.8-7.7v-18.1H563V333h6.6q2.4 0 3.4-.9 1-1 1-3.5v-8.7h9.8V333h14.4v8.3h-14.4v20.6h14.4v8.3Zm9.7 0v-53.3h10.6v22.9h.5q.6-1.6 1.6-3 .9-1.4 2.2-2.4 1.4-1 3.1-1.7 1.8-.6 4-.6 2.7 0 4.9.9t3.8 2.7q1.6 1.8 2.5 4.4.9 2.6.9 6v24.1h-10.6v-22.7q0-7.2-6.3-7.2-1.2 0-2.4.4-1.2.3-2.1 1-1 .7-1.5 1.7-.6 1-.6 2.3v24.5h-10.6Zm97.8-18.7v18.7h-10.6v-50.3h19.4q3.7 0 6.6 1.1 2.8 1.1 4.8 3.2t3 5.1q1 2.9 1 6.6 0 5.3-2.3 9.1t-6.5 5.1l9.8 20.1h-11.8l-8.4-18.7h-5Zm0-8.3h6.2q3.8 0 5.3-1.5 1.5-1.4 1.5-4.7v-2.2q0-3.3-1.5-4.8-1.5-1.4-5.3-1.4h-6.2v14.6Zm49.7 27.8q-9.4 0-14.2-5.2-4.8-5.2-4.8-14.1 0-4.5 1.3-8.2 1.2-3.6 3.6-6.1 2.3-2.6 5.6-3.9 3.4-1.4 7.6-1.4 4.1 0 7.5 1.4 3.3 1.3 5.6 3.7 2.3 2.5 3.5 6 1.3 3.5 1.3 7.8v3.2H747v.6q0 3.6 2.2 5.8 2.2 2.2 6.6 2.2 3.3 0 5.7-1.3 2.3-1.2 4.1-3.3l5.7 6.3q-2.1 2.6-6 4.6-3.9 1.9-9.9 1.9Zm-.9-31.2q-3.4 0-5.5 2.1-2 2.1-2 5.7v.6h15v-.6q0-3.7-2-5.7-2-2.1-5.5-2.1Zm62.7 30.4h-6.1q-3.3 0-5.4-1.7-2-1.7-2.3-4.9h-.4q-1 3.7-4 5.5-3 1.9-7.3 1.9-5.4 0-8.7-2.9-3.3-2.9-3.3-8.2 0-5.8 4.3-8.6 4.2-2.8 12.4-2.8h6v-1.9q0-3.3-1.5-5-1.6-1.7-5.2-1.7-3.4 0-5.5 1.3t-3.6 3.4l-5.8-5.2q1.8-3.2 5.8-5.2 4-2.1 10.3-2.1 7.6 0 11.9 3.5 4.3 3.5 4.3 10.6v16.2h4.1v7.8Zm-21.5-6.2q2.8 0 4.8-1.3 1.9-1.4 1.9-4v-4.5h-5.7q-6.5 0-6.5 4.4v1.5q0 1.9 1.5 2.9t4 1Zm46.6 7q-4.4 0-7.9-1.3t-5.9-3.9q-2.4-2.5-3.7-6.1-1.3-3.6-1.3-8.1 0-4.6 1.3-8.2 1.3-3.6 3.7-6.1 2.4-2.5 5.9-3.8 3.5-1.4 7.8-1.4 6.2 0 9.9 2.5t5.6 6.6l-8.2 4.5q-1-2.2-2.6-3.6-1.6-1.5-4.7-1.5-3.6 0-5.6 2.2-2 2.1-2 5.8v6q0 3.7 2 5.8 2 2.1 5.8 2.1 3.1 0 4.8-1.4 1.8-1.5 3-3.8l8.1 4.6q-2 4.1-5.9 6.6-3.8 2.5-10.1 2.5Zm58.3-.8h-13.7q-5.8 0-8.6-3.1-2.8-3-2.8-7.7v-18.1h-10.1V333h6.6q2.4 0 3.4-.9 1-1 1-3.5v-8.7h9.8V333h14.4v8.3h-14.4v20.6h14.4v8.3Z" clip-path="url(#c)" mask="url(#d)"/><path d="M130.7 520.3v-20.7h2.2v8.6h.1q1.4-2.7 4.5-2.7 2.6 0 4.1 2 1.5 2 1.5 5.5 0 3.6-1.5 5.6-1.5 2-4.1 2-3.1 0-4.5-2.7h-.1v2.4h-2.2Zm5.9-1.7q2 0 3-1.2 1.1-1.2 1.1-3.1v-2.5q0-1.9-1.1-3.1-1-1.2-3-1.2-.8 0-1.4.2-.7.2-1.2.5-.5.4-.8 1-.3.5-.3 1.2v5.3q0 .7.3 1.2.3.6.8.9.5.4 1.2.6.6.2 1.4.2Zm18.8-6.7 2.5-6.1h2.2l-7.2 17.6q-.2.7-.5 1.1-.3.5-.7.8-.5.3-1 .4-.6.2-1.4.2h-2.2V524h3.4l1.6-4-5.8-14.2h2.3l2.4 6.1 2.2 5.5h.1l2.1-5.5Z"/><clipPath id="e"><path d="M178 489h252v36H178z"/></clipPath><mask id="f"><path fill="#fff" d="M178 489h252v36H178z"/></mask><path d="M184.3 512.8v7.3h-4.2v-19.6h7.6q1.4 0 2.5.5 1.2.4 1.9 1.2.8.8 1.2 2 .4 1.1.4 2.6 0 2-.9 3.5t-2.6 2l3.9 7.8h-4.6l-3.3-7.3h-1.9Zm0-3.2h2.4q1.5 0 2-.6.6-.5.6-1.8v-.9q0-1.2-.6-1.8-.5-.6-2-.6h-2.4v5.7Zm20.4 2.1 2.1-6.1h4.3l-6.8 16.8q-.7 1.6-1.7 2.5-1.1.8-3 .8h-2.8v-3.2h3.5l.9-2.5-5.9-14.4h4.5l2.1 6.1 1.3 4.2h.2l1.3-4.2Zm17.7 8.4v-2.6h-.1q-.5 1.2-1.5 2.1-1.1.8-2.8.8-1 0-1.9-.3-.9-.4-1.5-1.1-.6-.7-.9-1.7-.4-1-.4-2.3v-9.4h4.2v8.8q0 2.8 2.4 2.8.5 0 .9-.1.5-.1.8-.4.4-.2.6-.6.2-.4.2-1v-9.5h4.2v14.5h-4.2Zm15.3-16.3q-1.4 0-1.9-.6-.6-.6-.6-1.4v-.8q0-.8.6-1.4.5-.5 1.9-.5t1.9.5q.6.6.6 1.4v.8q0 .8-.6 1.4-.5.6-1.9.6Zm-6.7 16.3v-3.2h4.6v-8H231v-3.3h8.8v11.3h4.2v3.2h-13Zm23.2.3q-1.7 0-3.1-.5-1.3-.5-2.3-1.5-.9-1-1.4-2.4-.5-1.4-.5-3.1 0-1.8.5-3.2.5-1.4 1.4-2.4 1-1 2.3-1.5 1.4-.5 3.1-.5 2.3 0 3.8 1 1.4.9 2.2 2.5l-3.2 1.8q-.4-.9-1-1.4-.7-.6-1.8-.6-1.5 0-2.2.8-.8.9-.8 2.3v2.3q0 1.5.8 2.3.7.8 2.2.8 1.2 0 1.9-.5.7-.6 1.2-1.5l3.1 1.8q-.8 1.6-2.3 2.6-1.5.9-3.9.9Zm9.6-.3v-20.7h4.2v8.9h.1l.6-1.2q.4-.5.9-.9t1.2-.7q.7-.2 1.6-.2 1 0 1.9.4.9.3 1.5 1t.9 1.7q.4 1 .4 2.3v9.4h-4.2v-8.8q0-2.8-2.4-2.8-.5 0-.9.1-.5.2-.9.4-.3.3-.5.7-.2.4-.2.9v9.5h-4.2Zm24.3-16.3q-1.4 0-1.9-.6-.6-.6-.6-1.4v-.8q0-.8.6-1.4.5-.5 1.9-.5t1.9.5q.6.6.6 1.4v.8q0 .8-.6 1.4-.5.6-1.9.6Zm-6.7 16.3v-3.2h4.6v-8h-4.6v-3.3h8.8v11.3h4.2v3.2h-13Zm32.5-19.6h4.2v12.4q0 .9.1 1.7.1.8.3 1.3.3.6.8.8.6.3 1.5.3t1.5-.3q.5-.2.8-.8.2-.5.3-1.3.1-.8.1-1.7v-12.4h4.2v11.9q0 2-.3 3.5t-1 2.5q-.8 1-2.1 1.5-1.4.5-3.5.5t-3.5-.5q-1.3-.5-2.1-1.5-.7-1-1-2.5-.3-1.5-.3-3.5v-11.9Zm19.5 19.6H330v-14.5h3.4v2.2h.2q.3-1 .9-1.8.7-.7 1.8-.7 2.1 0 2.6 2.5h.2q.1-.5.4-1 .2-.4.6-.8.4-.3.9-.5t1.1-.2q3.1 0 3.1 4.5v10.3h-3.4v-9.9q0-1-.3-1.4-.4-.4-.9-.4-.6 0-.9.3-.4.4-.4 1.1v10.3h-3.4v-9.9q0-1-.3-1.4-.3-.4-.9-.4-.5 0-.9.3-.4.4-.4 1.1v10.3Zm21.4.3q-3.6 0-5.5-2t-1.9-5.5q0-1.7.5-3.2.5-1.4 1.4-2.4.9-1 2.2-1.5 1.3-.5 2.9-.5 1.7 0 2.9.5 1.3.5 2.2 1.5.9.9 1.4 2.3.5 1.4.5 3v1.3h-9.9v.2q0 1.4.9 2.3.9.8 2.5.8 1.3 0 2.2-.5 1-.4 1.6-1.3l2.3 2.5q-.9 1-2.4 1.8-1.5.7-3.8.7Zm-.3-12.1q-1.4 0-2.2.8-.8.8-.8 2.2v.3h5.8v-.3q0-1.4-.7-2.2-.8-.8-2.1-.8Zm10.1 11.8v-20.7h4.2v8.9h.1l.6-1.2q.4-.5.9-.9t1.2-.7q.7-.2 1.6-.2 1 0 1.9.4.9.3 1.5 1t.9 1.7q.4 1 .4 2.3v9.4h-4.2v-8.8q0-2.8-2.4-2.8-.5 0-.9.1-.5.2-.9.4-.3.3-.5.7-.2.4-.2.9v9.5h-4.2Zm31 0h-2.4q-1.3 0-2-.7-.8-.6-1-1.9h-.1q-.4 1.5-1.6 2.2-1.1.7-2.8.7-2.1 0-3.4-1.1-1.2-1.1-1.2-3.2 0-2.3 1.6-3.3 1.7-1.1 4.9-1.1h2.3v-.8q0-1.3-.6-1.9-.6-.7-2.1-.7-1.3 0-2.1.5t-1.4 1.4l-2.3-2.1q.8-1.2 2.3-2 1.6-.8 4-.8 3 0 4.7 1.4 1.6 1.3 1.6 4.1v6.3h1.6v3Zm-8.3-2.4q1.1 0 1.8-.5.8-.6.8-1.6v-1.7h-2.2q-2.6 0-2.6 1.7v.6q0 .7.6 1.1.6.4 1.6.4Zm11.2 2.4v-3.2h3.3v-8h-3.3v-3.3h7.4v4.1h.2q.2-.8.6-1.5.3-.7.9-1.3.5-.6 1.3-.9.8-.4 1.9-.4h1.3v3.9h-3q-1.6 0-2.4.9-.8.9-.8 2.2v4.3h4.8v3.2h-12.2Zm30.7 0h-2.4q-1.3 0-2-.7-.8-.6-1-1.9h-.1q-.4 1.5-1.6 2.2-1.1.7-2.8.7-2.1 0-3.4-1.1-1.2-1.1-1.2-3.2 0-2.3 1.6-3.3 1.7-1.1 4.9-1.1h2.3v-.8q0-1.3-.6-1.9-.6-.7-2.1-.7-1.3 0-2.1.5t-1.4 1.4l-2.3-2.1q.8-1.2 2.3-2 1.6-.8 4-.8 3 0 4.7 1.4 1.6 1.3 1.6 4.1v6.3h1.6v3Zm-8.3-2.4q1.1 0 1.8-.5.8-.6.8-1.6v-1.7h-2.2q-2.6 0-2.6 1.7v.6q0 .7.6 1.1.6.4 1.6.4Z" clip-path="url(#e)" mask="url(#f)"/><clipPath id="g"><path d="M1004 489h68v36h-68z"/></clipPath><mask id="h"><path fill="#fff" d="M1004 489h68v36h-68z"/></mask><path d="M1006.2 520.1v-19.6h6.8q2.9 0 4.4 1.4 1.6 1.4 1.6 3.9 0 1.6-.9 2.6-.8 1-2.3 1.5v.1q1.8.5 2.8 1.6 1 1.1 1 3.1 0 2.5-1.6 3.9-1.5 1.5-4.3 1.5h-7.5Zm4-2.9h2.2q1.5 0 2.2-.6.7-.5.7-1.8v-.8q0-1.4-.7-1.9t-2.2-.5h-2.2v5.6Zm0-8.4h1.6q1.5 0 2.2-.5.7-.4.7-1.7v-.9q0-1.3-.7-1.7-.7-.5-2.2-.5h-1.6v5.3Zm12.5 11.3v-3.2h4.4v-14.3h-4.4v-3.2h8.6v17.5h4.4v3.2h-13Zm23.3.3q-1.7 0-3-.5-1.4-.5-2.3-1.5-.9-1-1.4-2.4-.6-1.4-.6-3.1 0-1.8.6-3.2.5-1.4 1.4-2.4.9-1 2.3-1.5 1.3-.5 3-.5t3 .5q1.4.5 2.3 1.5.9 1 1.4 2.4.6 1.4.6 3.2 0 1.7-.6 3.1-.5 1.4-1.4 2.4-.9 1-2.3 1.5-1.3.5-3 .5Zm0-3.1q1.4 0 2.2-.8.8-.9.8-2.5v-2.3q0-1.6-.8-2.4-.8-.9-2.2-.9-1.4 0-2.2.9-.8.8-.8 2.4v2.3q0 1.6.8 2.5.8.8 2.2.8Zm24.7 4.2q0 2.3-1.9 3.4t-6.1 1.1q-2.1 0-3.4-.2-1.3-.2-2.1-.7-.8-.4-1.2-1.1-.3-.6-.3-1.3 0-1.2.7-1.9.8-.6 2.1-.9v-.2q-.9-.3-1.5-.8-.5-.5-.5-1.5t.7-1.5q.7-.5 1.9-.8v-.2q-1.3-.6-2-1.7t-.7-2.7q0-1.3.4-2.3.5-.9 1.3-1.6.8-.6 2-1 1.1-.3 2.5-.3t2.6.3v-.8q0-.8.6-1.4.6-.5 1.6-.5h2.5v3h-3.4v.2q1.1.7 1.8 1.7.7 1.1.7 2.7 0 1.2-.5 2.2-.4.9-1.3 1.6-.8.6-2 1-1.1.3-2.6.3-.6 0-1.2-.1-.6 0-1.1-.2-.3.2-.5.5-.2.2-.2.6 0 .3.1.5.2.2.5.3.3.1.7.1.4.1.8.1h3.3q1.5 0 2.6.3t1.8.9q.7.5 1 1.3.3.7.3 1.6Zm-3.9.4q0-.6-.4-.9-.5-.3-1.8-.3h-4.9q-.6.4-.6 1.1 0 .7.6 1.1.6.5 2 .5h2.4q1.4 0 2.1-.4.6-.4.6-1.1Zm-4.2-8.9q1.3 0 1.9-.6.5-.7.5-1.6v-.7q0-.9-.5-1.5-.6-.7-1.9-.7-1.2 0-1.8.7-.5.6-.5 1.5v.7q0 .9.5 1.6.6.6 1.8.6Z" clip-path="url(#g)" mask="url(#h)"/></svg>